<?xml version="1.0" encoding="UTF-8"?>
<svg xmlns="http://www.w3.org/2000/svg" width="16" height="16" viewBox="0 0 16 16">
	<path style="fill:#a1a1a1;fill-rule:evenodd"
		d="M 8,6 C 7.1090,6 6.6629,4.9228 7.2929,4.2929 7.9228,3.6629 9,4.1090 9,5 9,5.5522 8.5522,6 8,6 Z m 1,5 c 0,1.3333 -2,1.3333 -2,0 V 8 C 7,6.6666 9,6.6666 9,8 Z M 8,2 C 2.0313,1.9218 -0.4627,9.5914 4.4066,13.0403 9.2759,16.4893 15.6833,11.5915 13.629,5.987 13.9642,5.9734 14.2957,5.9111 14.613,5.802 14.8604,6.5088 14.9911,7.2511 15,8 15,14.2367 7.4600,17.3590 3.0505,12.9494 -1.3590,8.5399 1.7632,1 8,1 8.7494,1.0086 9.4925,1.1393 10.2,1.387 10.0908,1.7042 10.0285,2.0357 10.015,2.371 9.3698,2.1317 8.6880,2.0062 8,2 Z"/>
	<path style="fill:#67c425;fill-rule:evenodd"
		d="m 13.470983,5 a 2.5,2.5 0 1 1 2.5,-2.5 2.5,2.5 0 0 1 -2.5,2.5 z"/>
</svg>
