<?xml version="1.0" encoding="UTF-8"?>
<svg xmlns="http://www.w3.org/2000/svg" width="16" height="16" viewBox="0 0 16 16">
	<path style="fill:#4c9ed9;fill-rule:evenodd"
		d="m 13.5,6.039 c 0.3834,-0.0045 0.7634,-0.072157 1.125,-0.2 C 17.0418,12.9794 8.1669,18.4853 2.8407,13.1592 -2.4853,7.8330 3.0205,-1.0418 10.161,1.375 10.0331,1.7365 9.9655,2.1165 9.961,2.5 9.9615,4.4543 11.545693,6.0384 13.5,6.039 Z M 8,4 C 7.1090,4 6.6629,5.0771 7.2929,5.7070 7.9228,6.3370 9,5.8909 9,5 9,4.4477 8.5522,4 8,4 Z M 9,8 C 9,6.6666 7,6.6666 7,8 v 3 c 0,1.3333 2,1.3333 2,0 z"/>
	<path style="fill:#67c425;fill-rule:evenodd"
		d="m 13.470983,5 a 2.5,2.5 0 1 1 2.5,-2.5 2.5,2.5 0 0 1 -2.5,2.5 z"/>
</svg>
